<svg width="200" height="204" xmlns="http://www.w3.org/2000/svg" p-id="2336" version="1.1" class="icon" t="1648651698780">
 <defs>
  <style type="text/css">@font-face { font-family: feedback-iconfont; src: url("//at.alicdn.com/t/font_1031158_u69w8yhxdu.woff2?t=1630033759944") format("woff2"), url("//at.alicdn.com/t/font_1031158_u69w8yhxdu.woff?t=1630033759944") format("woff"), url("//at.alicdn.com/t/font_1031158_u69w8yhxdu.ttf?t=1630033759944") format("truetype"); }</style>
 </defs>
 <g>
  <title>background</title>
  <rect fill="none" id="canvas_background" height="206" width="202" y="-1" x="-1"/>
 </g>
 <g>
  <title>Layer 1</title>
  <ellipse stroke="#fff" ry="100" rx="100" id="svg_4" cy="100" cx="100" stroke-width="1.5" fill="#000"/>
  <path stroke="null" id="svg_1" p-id="2337" fill="#ffffff" d="m62.029597,166.083812l4.494198,0a3.527627,3.527627 0 0 0 3.400632,-2.596333l9.00956,-33.032703a3.527627,3.527627 0 0 1 4.077938,-2.539892c9.912632,1.926085 17.073716,2.892654 21.483251,2.892654c4.564749,0 14.117565,-1.030067 28.672556,-3.090202a3.527627,3.527627 0 0 1 3.894501,2.568113l9.058947,33.202029a3.527627,3.527627 0 0 0 3.400632,2.596333l4.628248,0a3.527627,3.527627 0 0 0 3.520571,-3.245416l4.353093,-54.473625a28.22102,28.22102 0 0 0 -28.129302,-30.471646l-29.399247,0c-6.871819,-14.336279 -12.755902,-23.740932 -17.638138,-28.22102c-2.236515,-2.046023 -15.098246,-7.464459 -38.564024,-16.234142a2.116576,2.116576 0 0 0 -2.793881,2.49756l2.053079,8.219373a3.527627,3.527627 0 0 1 -0.980681,3.400632c-4.614137,4.416591 -7.647895,7.478571 -9.101279,9.171832c-1.516879,1.763814 -3.696953,7.104641 -6.540221,16.015428a3.527627,3.527627 0 0 0 0.423315,3.03376l4.254319,6.370895a3.527627,3.527627 0 0 0 4.748187,1.072398l5.93347,-3.562903a6.088684,6.088684 0 0 1 9.214162,4.988065l3.005539,78.045231a3.527627,3.527627 0 0 0 3.527629,3.393577l-0.007056,0z"/>
 </g>
</svg>